<svg width="148" height="148" viewBox="0 0 148 148" fill="none" xmlns="http://www.w3.org/2000/svg">
<path d="M74 0L110.972 23.1128L144.378 51.1327L133.821 93.4372L117.496 133.867L74 136.9L30.5039 133.867L14.1785 93.4372L3.62182 51.1327L37.0283 23.1128L74 0Z" fill="#444444"/>
<path d="M42.25 99.25V52.375L48.1875 49.5625H48.5V96.4375L42.5625 99.25H42.25ZM61 99.25V92.125L66.9375 89.3125H67.25V96.4375L61.3125 99.25H61ZM95.5312 93.625C98.5104 93.625 100.938 92.5521 102.812 90.4062C104.312 88.6771 105.062 86.4167 105.062 83.625V65.1875C105.062 62.3958 104.312 60.1354 102.812 58.4062C100.958 56.2604 98.5312 55.1875 95.5312 55.1875C92.5104 55.1875 90.0833 56.2604 88.25 58.4062C86.75 60.1354 86 62.3958 86 65.1875V83.625C86 86.375 86.75 88.6354 88.25 90.4062C90.0625 92.5521 92.4896 93.625 95.5312 93.625ZM95.5312 99.25C90.7812 99.25 86.9271 97.7396 83.9688 94.7188C81.1562 91.8438 79.75 88.1458 79.75 83.625V61.75L95.5312 49.5625C100.281 49.5625 104.135 51.0729 107.094 54.0938C109.906 56.9688 111.312 60.6667 111.312 65.1875V87.0625L95.5312 99.25Z" fill="#FCFDBD"/>
</svg>
